<?xml version="1.0" encoding="utf-8"?>
<!-- Generator: Adobe Illustrator 16.0.0, SVG Export Plug-In . SVG Version: 6.00 Build 0)  -->
<!DOCTYPE svg PUBLIC "-//W3C//DTD SVG 1.1//EN" "http://www.w3.org/Graphics/SVG/1.1/DTD/svg11.dtd">
<svg version="1.1" id="Layer_1" xmlns="http://www.w3.org/2000/svg" xmlns:xlink="http://www.w3.org/1999/xlink" x="0px" y="0px"
	 width="841.889px" height="595.281px" viewBox="0 0 841.889 595.281" enable-background="new 0 0 841.889 595.281"
	 xml:space="preserve">
<g display="none">
	<g display="inline">
		<path fill="#FFFFFF" stroke="#231F20" stroke-width="0.5" stroke-miterlimit="10" d="M408.291,592.467l-8.948-8.948l47.836-47.838
			c10.525-10.524,14.803-18.347,14.268-26.17c-0.535-7.991-5.895-16.981-14.971-29.828c-5.754-8.146-9.244-13.773-11.678-18.825
			c-2.955-6.148-4.334-11.509-4.318-16.897c0.014-10.918,5.641-20.937,16.01-35.597c9.977-14.112,13.508-21.499,13.521-28.267
			c0-3.476-0.971-7.147-3.066-11.551c-2.098-4.404-5.361-9.652-10.566-17.024c-9.977-14.112-15.773-24.426-15.828-35.4
			c-0.07-11.059,5.67-21.358,15.588-35.386c5.432-7.682,8.668-12.846,10.82-17.249c2.166-4.433,3.18-8.091,3.207-11.538
			c0.043-6.683-3.531-14.14-13.66-28.463c-5.74-8.104-9.217-13.718-11.65-18.741c-2.969-6.148-4.361-11.523-4.375-16.926
			c-0.029-11.045,5.852-21.527,16.01-35.906c9.301-13.155,14.773-22.272,15.238-30.025c0.211-3.63-0.646-7.133-2.715-10.988
			c-2.309-4.291-6.178-9.131-11.818-14.787c-5.459-5.459-9.682-11.199-12.564-17.081c-3.039-6.19-4.615-12.578-4.686-18.98
			c-0.07-6.556,1.42-13.127,4.459-19.528c3.012-6.346,7.584-12.606,13.578-18.614C468.312,1.576,498.745,0.056,500.04,0h0.268
			h36.201v12.663h-36.033c-0.887,0.057-7.387,0.507-15.66,2.828c-7.936,2.237-19.219,6.711-27.9,15.378
			c-9.623,9.624-14.449,19.389-14.336,29.04c0.111,9.202,4.656,18.361,13.549,27.254c13.465,13.465,18.91,24.073,18.221,35.483
			c-0.648,10.806-6.656,21.189-17.531,36.568c-10.131,14.322-13.719,21.808-13.689,28.562c0.014,6.683,3.602,14.112,13.689,28.393
			c10.426,14.745,16.053,24.833,15.982,35.864c-0.07,10.946-5.797,21.104-16.334,36.005c-5.08,7.189-8.26,12.325-10.299,16.658
			c-2.041,4.306-2.984,7.922-2.955,11.354c0.041,6.739,3.574,14.099,13.506,28.154c10.117,14.309,15.971,24.763,15.957,35.892
			c-0.016,11.017-5.813,21.387-15.844,35.568c-5.248,7.43-8.512,12.649-10.594,16.94c-2.111,4.348-3.096,7.964-3.096,11.368
			c-0.014,6.669,3.574,14.099,13.689,28.407c10.369,14.675,16.533,25.326,17.264,36.286c0.408,6.092-0.9,11.974-3.996,17.967
			c-2.885,5.601-7.457,11.481-13.957,17.995L408.291,592.467z"/>
	</g>
</g>
<g>
	<defs>
		<path id="SVGID_1_" d="M361.31,592.467l-8.948-8.948l47.836-47.838c10.525-10.524,14.803-18.347,14.268-26.17
			c-0.535-7.991-5.895-16.981-14.971-29.828c-5.754-8.146-9.244-13.773-11.678-18.825c-2.955-6.148-4.334-11.509-4.318-16.897
			c0.014-10.918,5.641-20.937,16.01-35.597c9.977-14.112,13.508-21.499,13.521-28.267c0-3.476-0.971-7.147-3.066-11.551
			c-2.098-4.404-5.361-9.652-10.566-17.024c-9.977-14.112-15.773-24.426-15.828-35.4c-0.07-11.059,5.67-21.358,15.588-35.386
			c5.432-7.682,8.668-12.846,10.82-17.249c2.166-4.433,3.18-8.091,3.207-11.538c0.043-6.683-3.531-14.14-13.66-28.463
			c-5.74-8.104-9.217-13.718-11.65-18.741c-2.969-6.148-4.361-11.523-4.375-16.926c-0.029-11.045,5.852-21.527,16.01-35.906
			c9.301-13.155,14.773-22.272,15.238-30.025c0.211-3.63-0.646-7.133-2.715-10.988c-2.309-4.291-6.178-9.131-11.818-14.787
			c-5.459-5.459-9.682-11.199-12.564-17.081c-3.039-6.19-4.615-12.578-4.686-18.98c-0.07-6.556,1.42-13.127,4.459-19.528
			c3.012-6.346,7.584-12.606,13.578-18.614C421.331,1.576,451.765,0.056,453.06,0h0.268h36.201v12.663h-36.033
			c-0.887,0.057-7.387,0.507-15.66,2.828c-7.936,2.237-19.219,6.711-27.901,15.378c-9.623,9.624-14.449,19.389-14.336,29.04
			c0.111,9.202,4.656,18.361,13.549,27.254c13.465,13.465,18.911,24.073,18.221,35.483c-0.648,10.806-6.657,21.189-17.532,36.568
			c-10.131,14.322-13.719,21.808-13.689,28.562c0.014,6.683,3.602,14.112,13.689,28.393c10.426,14.745,16.053,24.833,15.983,35.864
			c-0.07,10.946-5.797,21.104-16.334,36.005c-5.08,7.189-8.26,12.325-10.299,16.658c-2.041,4.306-2.984,7.922-2.955,11.354
			c0.041,6.739,3.574,14.099,13.506,28.154c10.117,14.309,15.971,24.763,15.958,35.892c-0.016,11.017-5.813,21.387-15.844,35.568
			c-5.248,7.43-8.512,12.649-10.594,16.94c-2.111,4.348-3.096,7.964-3.096,11.368c-0.014,6.669,3.574,14.099,13.689,28.407
			c10.369,14.675,16.534,25.326,17.264,36.286c0.408,6.092-0.9,11.974-3.996,17.967c-2.885,5.601-7.458,11.481-13.958,17.995
			L361.31,592.467z"/>
	</defs>
	<clipPath id="SVGID_2_">
		<use xlink:href="#SVGID_1_"  overflow="visible"/>
	</clipPath>
	<g opacity="0.15" clip-path="url(#SVGID_2_)">
		<g>
			<path d="M362.717,595.281l-8.948-8.949l47.837-47.837c10.524-10.524,14.802-18.348,14.267-26.17
				c-0.534-7.992-5.896-16.982-14.97-29.828c-5.755-8.146-9.244-13.774-11.678-18.825c-2.955-6.148-4.334-11.51-4.32-16.898
				c0.015-10.918,5.643-20.936,16.012-35.597c9.976-14.111,13.507-21.498,13.521-28.266c0-3.476-0.972-7.147-3.067-11.552
				c-2.097-4.403-5.361-9.651-10.566-17.024c-9.976-14.112-15.772-24.425-15.829-35.399c-0.07-11.073,5.671-21.358,15.59-35.386
				c5.431-7.683,8.667-12.846,10.819-17.25c2.167-4.432,3.18-8.09,3.208-11.537c0.042-6.684-3.531-14.141-13.662-28.464
				c-5.74-8.104-9.215-13.718-11.649-18.74c-2.969-6.148-4.361-11.523-4.376-16.927c-0.027-11.044,5.854-21.526,16.012-35.905
				c9.3-13.155,14.773-22.273,15.237-30.025c0.211-3.63-0.647-7.134-2.715-10.988c-2.308-4.292-6.177-9.132-11.819-14.788
				c-5.459-5.459-9.68-11.199-12.563-17.08c-3.039-6.191-4.615-12.579-4.686-18.98c-0.07-6.557,1.421-13.127,4.46-19.529
				c3.011-6.345,7.584-12.606,13.577-18.614C422.739,4.389,453.171,2.87,454.466,2.814h0.268h35.075v12.663h-34.906
				c-0.887,0.056-7.387,0.506-15.66,2.827c-7.936,2.237-19.22,6.712-27.9,15.379c-9.624,9.624-14.45,19.388-14.337,29.04
				c0.112,9.201,4.657,18.361,13.549,27.253c13.465,13.465,18.91,24.073,18.221,35.484c-0.647,10.806-6.655,21.189-17.531,36.567
				c-10.13,14.323-13.718,21.809-13.689,28.562c0.014,6.684,3.602,14.112,13.689,28.394c10.426,14.745,16.054,24.833,15.983,35.863
				c-0.07,10.946-5.797,21.105-16.335,36.005c-5.079,7.189-8.259,12.325-10.299,16.659c-2.041,4.306-2.983,7.921-2.955,11.354
				c0.042,6.739,3.573,14.098,13.507,28.153c10.116,14.31,15.97,24.763,15.955,35.893c-0.014,11.017-5.811,21.386-15.843,35.568
				c-5.248,7.429-8.512,12.648-10.594,16.939c-2.111,4.348-3.096,7.964-3.096,11.369c-0.014,6.669,3.573,14.098,13.689,28.406
				c10.37,14.676,16.532,25.326,17.264,36.286c0.408,6.093-0.9,11.974-3.995,17.968c-2.885,5.6-7.457,11.48-13.958,17.995
				L362.717,595.281z"/>
		</g>
	</g>
	<g clip-path="url(#SVGID_2_)">
		<g>
			<path fill="#FFFFFF" stroke="#231F20" stroke-width="0.5" stroke-miterlimit="10" d="M361.31,592.467l-8.948-8.948l47.837-47.838
				c10.524-10.524,14.802-18.347,14.267-26.17c-0.534-7.991-5.895-16.981-14.97-29.828c-5.755-8.146-9.244-13.773-11.678-18.825
				c-2.955-6.148-4.334-11.509-4.319-16.897c0.014-10.918,5.642-20.937,16.011-35.597c9.976-14.112,13.507-21.499,13.521-28.267
				c0-3.476-0.971-7.147-3.067-11.551c-2.097-4.404-5.36-9.652-10.566-17.024c-9.976-14.112-15.772-24.426-15.828-35.4
				c-0.07-11.059,5.67-21.358,15.589-35.386c5.431-7.682,8.667-12.846,10.819-17.249c2.167-4.433,3.18-8.091,3.208-11.538
				c0.042-6.683-3.531-14.14-13.661-28.463c-5.74-8.104-9.216-13.718-11.65-18.741c-2.969-6.148-4.361-11.523-4.375-16.926
				c-0.028-11.045,5.853-21.527,16.011-35.906c9.301-13.155,14.773-22.272,15.237-30.025c0.212-3.63-0.646-7.133-2.715-10.988
				c-2.308-4.291-6.177-9.131-11.818-14.787c-5.459-5.459-9.681-11.199-12.564-17.081c-3.039-6.19-4.615-12.578-4.686-18.98
				c-0.07-6.556,1.421-13.127,4.46-19.528c3.012-6.346,7.584-12.606,13.577-18.614C421.331,1.576,451.765,0.056,453.059,0h0.268
				h36.201v12.663h-36.032c-0.887,0.057-7.387,0.507-15.66,2.828c-7.936,2.237-19.219,6.711-27.9,15.378
				c-9.624,9.624-14.449,19.389-14.337,29.04c0.112,9.202,4.657,18.361,13.549,27.254c13.465,13.465,18.91,24.073,18.221,35.483
				c-0.647,10.806-6.655,21.189-17.531,36.568c-10.13,14.322-13.718,21.808-13.689,28.562c0.014,6.683,3.602,14.112,13.689,28.393
				c10.426,14.745,16.054,24.833,15.983,35.864c-0.07,10.946-5.797,21.104-16.335,36.005c-5.079,7.189-8.259,12.325-10.299,16.658
				c-2.04,4.306-2.983,7.922-2.955,11.354c0.042,6.739,3.574,14.099,13.507,28.154c10.116,14.309,15.97,24.763,15.956,35.892
				c-0.015,11.017-5.812,21.387-15.843,35.568c-5.248,7.43-8.513,12.649-10.595,16.94c-2.11,4.348-3.096,7.964-3.096,11.368
				c-0.014,6.669,3.574,14.099,13.69,28.407c10.369,14.675,16.532,25.326,17.264,36.286c0.407,6.092-0.9,11.974-3.996,17.967
				c-2.885,5.601-7.457,11.481-13.957,17.995L361.31,592.467z"/>
		</g>
	</g>
	<g clip-path="url(#SVGID_2_)">
		<g>
			<path fill="none" stroke="#0F0F0F" stroke-width="0.5" stroke-miterlimit="10" d="M364.715,589.061l-3.405,3.405l-8.948-8.948
				l3.404-3.405 M360.747,575.146l4.98-4.98l8.948,8.948l-4.98,4.981 M394.571,559.219l-4.98,4.98l-8.948-8.948l4.98-4.98
				 M390.589,545.304l4.98-4.98l8.948,8.948l-4.98,4.98 M423.47,525.944c-1.111,2.237-2.49,4.545-4.137,6.866l-10.341-7.302
				c1.252-1.773,2.308-3.518,3.123-5.164 M414.015,515.125c0.338-1.436,0.493-2.856,0.493-4.306c0-0.31-0.015-0.633-0.028-0.942
				l12.648-0.619c0.028,0.521,0.042,1.041,0.042,1.562c0.015,2.393-0.267,4.798-0.815,7.162 M415.365,480.443
				c1.492,2.265,2.758,4.305,3.897,6.246l-10.932,6.388c-1.027-1.744-2.181-3.615-3.546-5.684 M400.93,481.723
				c-0.464-0.676-0.942-1.352-1.421-2.026c-0.957-1.351-1.814-2.589-2.631-3.785l10.454-7.161c0.773,1.14,1.604,2.321,2.519,3.63
				c0.506,0.703,0.984,1.407,1.477,2.097 M396.329,446.38c0.226,1.717,0.676,3.476,1.393,5.417l-11.889,4.39
				c-1.055-2.842-1.73-5.516-2.068-8.188 M383.864,439.232c0.408-2.631,1.126-5.29,2.224-8.104l11.804,4.587
				c-0.745,1.941-1.252,3.729-1.505,5.431 M411.707,412.992c-0.576,0.844-1.21,1.744-1.856,2.659
				c-0.774,1.098-1.491,2.139-2.167,3.109l-10.426-7.189c0.703-1.014,1.449-2.097,2.251-3.223c0.634-0.886,1.225-1.744,1.787-2.561
				 M405.081,400.146c1.322-2.068,2.434-3.926,3.391-5.67l11.101,6.078c-1.098,1.998-2.35,4.094-3.827,6.401 M423.639,368.531
				c0.985,2.856,1.604,5.544,1.886,8.245l-12.606,1.309c-0.184-1.73-0.592-3.504-1.253-5.417 M409.203,367.04
				c-0.9-1.745-1.956-3.602-3.236-5.67l10.777-6.655c1.449,2.35,2.674,4.502,3.729,6.543 M401.395,331.415
				c0.984,1.745,2.124,3.588,3.475,5.67l-10.608,6.909c-1.491-2.294-2.757-4.362-3.869-6.317 M386.917,330.782
				c-1.183-2.729-2.026-5.29-2.575-7.823l12.367-2.701c0.38,1.73,0.971,3.531,1.829,5.516 M402.66,298.337
				c-1.266,2.068-2.279,3.926-3.137,5.67l-11.368-5.586c1.026-2.082,2.223-4.249,3.672-6.641 M395.781,285.603
				c1.027-1.52,2.125-3.109,3.363-4.868c0.239-0.338,0.478-0.675,0.717-1.013l10.37,7.273c-0.239,0.353-0.493,0.689-0.746,1.056
				c-1.182,1.675-2.237,3.194-3.193,4.629 M424.638,260.474c-0.661,2.435-1.59,4.925-2.842,7.598l-11.467-5.36
				c0.942-2.012,1.617-3.827,2.082-5.543 M413.171,251.864v-0.028c0-1.702-0.239-3.433-0.731-5.262l12.24-3.265
				c0.774,2.913,1.154,5.698,1.154,8.526v0.07 M418.25,228.944c1.436,2.42,2.603,4.629,3.588,6.754 M410.371,241.03
				c-0.816-1.744-1.801-3.588-3.025-5.656 M410.244,216.746c1.548,2.194,2.87,4.137,4.08,5.951l-10.552,6.993
				c-1.14-1.717-2.406-3.56-3.884-5.656 M395.823,218.153c-1.52-2.252-2.814-4.264-3.968-6.163l10.819-6.585
				c1.055,1.731,2.251,3.588,3.644,5.671 M396.611,183.512c-0.31,1.449-0.464,2.828-0.464,4.207c0,0.352,0.014,0.718,0.028,1.069
				l-12.635,0.746c-0.028-0.591-0.057-1.21-0.057-1.801c0-2.294,0.239-4.545,0.746-6.895 M386.804,173.016
				c0.929-2.181,2.068-4.432,3.476-6.908l11.017,6.247c-1.168,2.068-2.11,3.911-2.856,5.656 M416.66,149.211
				c-1.196,1.843-2.505,3.813-4.024,6.021l-10.426-7.189c1.449-2.097,2.688-3.953,3.799-5.685 M409.456,136.675
				c1.168-2.068,2.097-3.926,2.856-5.685l11.622,5.023c-0.929,2.181-2.055,4.432-3.447,6.88 M422.345,103.413
				c1.505,2.575,2.645,5.052,3.475,7.584l-12.016,3.981c-0.549-1.674-1.337-3.362-2.392-5.178 M407.908,104.693
				c-1.224-1.562-2.645-3.235-4.221-4.952l9.328-8.568c1.815,1.97,3.462,3.911,4.896,5.755 M397.75,70.644
				c0.704,1.802,1.59,3.63,2.646,5.432l-10.933,6.373c-1.378-2.363-2.561-4.798-3.503-7.203 M383.681,67.381
				c-0.492-2.575-0.746-5.192-0.746-7.795c0-0.154,0-0.31,0-0.464l12.663,0.141c0,0.112,0,0.211,0,0.323
				c0,1.801,0.169,3.616,0.521,5.417 M404.25,37.3c-1.322,1.702-2.504,3.446-3.531,5.163l-10.89-6.472
				c1.28-2.153,2.758-4.319,4.404-6.444 M399.214,23.736c0.576-0.605,1.167-1.225,1.772-1.815c1.21-1.21,2.504-2.392,3.841-3.518
				l8.175,9.681c-1.069,0.9-2.082,1.843-3.053,2.8c-0.521,0.506-1.042,1.026-1.52,1.548 M435.514,16.18
				c-2.11,0.661-4.165,1.393-6.135,2.194l-4.77-11.733c2.294-0.929,4.686-1.787,7.119-2.562 M438.99,2.125
				c2.462-0.563,4.952-1.041,7.4-1.407l1.886,12.522c-2.125,0.323-4.292,0.731-6.444,1.224 M482.493,0h7.034v12.663h-7.034
				 M475.458,12.663h-7.035V0h7.035"/>
		</g>
	</g>
	<g opacity="0.3" clip-path="url(#SVGID_2_)">
		
			<image overflow="visible" width="3000" height="2000" xlink:href="F:\Downloads\wildtextures-old-recycled-cardboard-texture.jpg"  transform="matrix(0.07 0 0 0.07 301.5437 -7.3865)">
		</image>
	</g>
	<g transform="matrix(1 0 0 1 3.051758e-005 0)" opacity="0.3" clip-path="url(#SVGID_2_)">
		
			<image overflow="visible" width="3000" height="2000" xlink:href="F:\Downloads\wildtextures-old-recycled-cardboard-texture.jpg"  transform="matrix(0.07 0 0 0.07 301.5422 272.2112)">
		</image>
	</g>
	<g transform="matrix(1 0 0 1 3.051758e-005 0)" opacity="0.3" clip-path="url(#SVGID_2_)">
		
			<image overflow="visible" width="3000" height="2000" xlink:href="F:\Downloads\wildtextures-old-recycled-cardboard-texture.jpg"  transform="matrix(-0.07 0 0 -0.07 511.6243 552.5007)">
		</image>
	</g>
	<g transform="matrix(1 0 0 1 0 6.103516e-005)" opacity="0.8" clip-path="url(#SVGID_2_)">
		
			<image overflow="visible" width="3508" height="4961" xlink:href="G:\Resources\Backgrounds\grunge textures\02.jpg"  transform="matrix(0 -0.3129 0.3129 0 -264.614 798.4031)">
		</image>
	</g>
	<g transform="matrix(1 0 0 1 3.051758e-005 0)" opacity="0.3" clip-path="url(#SVGID_2_)">
		
			<image overflow="visible" width="3000" height="2000" xlink:href="F:\Downloads\wildtextures-old-recycled-cardboard-texture.jpg"  transform="matrix(-0.07 0 0 -0.07 511.6243 272.3342)">
		</image>
	</g>
</g>
</svg>
